<svg xmlns="http://www.w3.org/2000/svg" xmlns:xlink="http://www.w3.org/1999/xlink" width="1920" zoomAndPan="magnify" viewBox="0 0 1440 809.999993" height="1080" preserveAspectRatio="xMidYMid meet" version="1.0"><defs><clipPath id="ed6b6b3832"><path d="M 866 201 L 1161.792969 201 L 1161.792969 609 L 866 609 Z M 866 201 " clip-rule="nonzero"/></clipPath><clipPath id="61c3dbe0ab"><path d="M 351.792969 201 L 648 201 L 648 609 L 351.792969 609 Z M 351.792969 201 " clip-rule="nonzero"/></clipPath></defs><path fill="#2c6994" d="M 960.613281 45.585938 C 924.257812 45.585938 889.972656 52.933594 858.703125 66.308594 C 826.304688 80.058594 797.292969 100.402344 773.183594 125.644531 C 751.519531 148.25 737.203125 177.070312 723.640625 204.570312 C 706.121094 239.609375 689.355469 273.140625 660.914062 296.121094 L 660.914062 225.105469 C 668.824219 212.484375 675.792969 198.542969 682.765625 184.226562 C 695.007812 159.929688 707.628906 134.6875 725.902344 111.140625 C 704.613281 92.300781 680.316406 76.855469 653.753906 65.554688 C 622.863281 52.746094 589.144531 45.585938 553.539062 45.585938 L 553.539062 0 C 595.171875 0 635.105469 8.476562 671.273438 23.734375 C 702.917969 36.921875 731.929688 55.382812 756.984375 78.175781 C 781.660156 55.945312 809.914062 37.675781 840.996094 24.488281 C 877.730469 8.664062 918.230469 0 960.613281 0 Z M 960.613281 45.585938 " fill-opacity="1" fill-rule="nonzero"/><path fill="#2c6994" d="M 553.539062 93.808594 C 585.753906 93.808594 616.644531 101.34375 644.148438 114.53125 C 672.78125 128.09375 697.832031 148.058594 717.425781 172.359375 L 682.011719 200.804688 C 666.5625 181.589844 646.972656 165.957031 624.558594 155.40625 C 603.269531 145.046875 579.160156 139.394531 553.539062 139.394531 Z M 553.539062 93.808594 " fill-opacity="1" fill-rule="nonzero"/><path fill="#2c6994" d="M 960.613281 128.28125 C 942.71875 131.859375 925.574219 137.136719 909.375 144.105469 C 876.976562 158.042969 847.964844 178.386719 823.855469 203.628906 C 802.191406 226.234375 788.0625 254.867188 774.3125 282.558594 C 769.792969 291.410156 765.269531 300.265625 760.75 308.929688 L 707.628906 308.929688 C 717.234375 294.800781 725.335938 278.789062 733.625 262.214844 C 748.695312 231.886719 764.515625 200.050781 791.078125 172.171875 C 819.332031 142.597656 853.429688 118.675781 891.667969 102.472656 C 913.519531 93.054688 936.5 86.273438 960.613281 82.128906 Z M 960.613281 128.28125 " fill-opacity="1" fill-rule="nonzero"/><path fill="#2c6994" d="M 960.613281 221.902344 L 960.046875 222.089844 C 927.648438 236.03125 898.636719 256.375 874.714844 281.429688 C 866.613281 289.90625 859.457031 299.136719 853.050781 308.929688 L 800.308594 308.929688 C 811.421875 288.585938 824.230469 268.617188 841.75 250.15625 C 870.007812 220.582031 904.101562 196.660156 942.339844 180.273438 C 948.367188 177.824219 954.398438 175.375 960.613281 173.113281 Z M 960.613281 221.902344 " fill-opacity="1" fill-rule="nonzero"/><path fill="#01406c" d="M 725.902344 111.140625 C 718.367188 104.546875 710.453125 98.140625 702.167969 92.300781 L 730.988281 57.078125 C 740.027344 63.667969 748.695312 70.640625 756.984375 78.175781 C 739.085938 93.054688 725.902344 111.140625 725.902344 111.140625 Z M 725.902344 111.140625 " fill-opacity="1" fill-rule="nonzero"/><path fill="#01406c" d="M 677.300781 195.34375 C 679.183594 191.574219 681.070312 187.996094 682.765625 184.226562 C 688.039062 173.867188 693.3125 163.128906 699.152344 152.582031 C 693.878906 164.824219 677.300781 195.34375 677.300781 195.34375 Z M 677.300781 195.34375 " fill-opacity="1" fill-rule="nonzero"/><path fill="#01406c" d="M 675.984375 133.179688 C 684.269531 139.207031 691.996094 145.613281 699.152344 152.582031 C 693.878906 164.824219 677.300781 195.34375 677.300781 195.34375 C 670.144531 187.054688 662.230469 179.707031 653.566406 173.113281 C 653.566406 172.550781 653.566406 172.171875 653.566406 172.171875 Z M 675.984375 133.179688 " fill-opacity="1" fill-rule="nonzero"/><g clip-path="url(#ed6b6b3832)"><path fill="#2c6994" d="M 1116.773438 608.820312 C 1116.773438 572.460938 1109.425781 538.179688 1096.050781 506.910156 C 1082.113281 474.507812 1061.769531 445.5 1036.714844 421.386719 C 1013.921875 399.726562 985.289062 385.410156 957.789062 371.847656 C 922.5625 354.328125 889.21875 337.5625 866.050781 309.117188 L 937.066406 309.117188 C 949.875 317.03125 963.625 324 977.941406 330.96875 C 1002.429688 343.214844 1027.671875 355.835938 1051.03125 374.105469 C 1070.058594 352.820312 1085.503906 328.519531 1096.617188 301.960938 C 1109.617188 271.066406 1116.773438 237.347656 1116.773438 201.746094 L 1162.359375 201.746094 C 1162.359375 243.375 1153.882812 283.3125 1138.625 319.480469 C 1125.25 351.125 1106.789062 380.136719 1084.183594 405.1875 C 1106.226562 429.863281 1124.496094 458.121094 1137.871094 489.203125 C 1153.507812 525.933594 1162.359375 566.433594 1162.359375 608.820312 Z M 1116.773438 608.820312 " fill-opacity="1" fill-rule="nonzero"/></g><path fill="#2c6994" d="M 1068.363281 201.746094 C 1068.363281 233.957031 1061.015625 264.851562 1047.828125 292.351562 C 1034.078125 320.984375 1014.300781 346.039062 990 365.628906 L 961.554688 330.214844 C 980.582031 314.769531 996.214844 295.179688 1006.953125 272.761719 C 1017.125 251.476562 1022.964844 227.363281 1022.964844 201.746094 Z M 1068.363281 201.746094 " fill-opacity="1" fill-rule="nonzero"/><path fill="#2c6994" d="M 1033.890625 608.820312 C 1030.308594 590.921875 1025.035156 573.78125 1018.066406 557.582031 C 1004.316406 525.179688 983.972656 496.171875 958.730469 472.058594 C 935.9375 450.398438 907.304688 436.269531 879.800781 422.519531 C 870.757812 417.996094 861.90625 413.476562 853.242188 408.957031 L 853.242188 355.835938 C 867.558594 365.441406 883.570312 373.542969 899.957031 381.832031 C 930.472656 396.898438 962.121094 412.722656 990 439.285156 C 1019.574219 467.539062 1043.496094 501.636719 1059.886719 539.875 C 1069.304688 561.726562 1076.085938 584.707031 1080.039062 608.820312 Z M 1033.890625 608.820312 " fill-opacity="1" fill-rule="nonzero"/><path fill="#2c6994" d="M 940.457031 608.820312 L 940.269531 608.253906 C 926.328125 575.855469 905.984375 546.84375 880.742188 522.734375 C 872.265625 514.820312 863.035156 507.664062 853.242188 501.257812 L 853.242188 448.515625 C 873.585938 459.628906 893.742188 472.4375 912.011719 489.957031 C 941.777344 518.210938 965.699219 552.308594 981.898438 590.546875 C 984.535156 596.574219 986.984375 602.601562 989.058594 608.820312 Z M 940.457031 608.820312 " fill-opacity="1" fill-rule="nonzero"/><path fill="#01406c" d="M 1051.03125 374.105469 C 1057.8125 366.570312 1064.027344 358.660156 1069.867188 350.371094 L 1105.09375 379.191406 C 1098.5 388.234375 1091.53125 396.898438 1084.183594 405.1875 C 1069.113281 387.292969 1051.03125 374.105469 1051.03125 374.105469 Z M 1051.03125 374.105469 " fill-opacity="1" fill-rule="nonzero"/><path fill="#01406c" d="M 967.015625 325.507812 C 970.597656 327.390625 974.363281 329.273438 977.941406 330.96875 C 988.492188 336.246094 999.039062 341.519531 1009.777344 347.359375 C 997.535156 342.082031 967.015625 325.507812 967.015625 325.507812 Z M 967.015625 325.507812 " fill-opacity="1" fill-rule="nonzero"/><path fill="#01406c" d="M 1028.992188 324.1875 C 1023.152344 332.476562 1016.746094 340.199219 1009.777344 347.359375 C 997.535156 342.082031 967.015625 325.507812 967.015625 325.507812 C 975.117188 318.347656 982.652344 310.4375 989.246094 301.773438 C 989.808594 301.773438 990.1875 301.773438 990.1875 301.773438 Z M 1028.992188 324.1875 " fill-opacity="1" fill-rule="nonzero"/><path fill="#2c6994" d="M 553.539062 764.980469 C 589.707031 764.980469 624.179688 757.632812 655.449219 744.257812 C 687.851562 730.320312 716.859375 709.972656 740.78125 684.921875 C 762.445312 662.128906 776.761719 633.496094 790.511719 605.992188 C 808.03125 570.765625 824.609375 537.425781 853.242188 514.257812 L 853.242188 585.273438 C 845.328125 598.082031 838.359375 611.832031 831.203125 626.148438 C 818.957031 650.636719 806.335938 675.878906 788.253906 699.238281 C 809.351562 718.261719 833.648438 733.710938 860.398438 744.824219 C 891.101562 757.820312 925.011719 764.980469 960.613281 764.980469 L 960.613281 810.566406 C 918.792969 810.566406 879.046875 802.089844 842.691406 786.832031 C 811.234375 773.457031 782.222656 754.996094 756.984375 732.390625 C 732.304688 754.429688 704.050781 772.703125 673.15625 786.078125 C 636.425781 801.710938 595.925781 810.566406 553.539062 810.566406 Z M 553.539062 764.980469 " fill-opacity="1" fill-rule="nonzero"/><path fill="#2c6994" d="M 960.613281 716.566406 C 928.210938 716.566406 897.507812 709.222656 869.816406 696.035156 C 841.375 682.285156 816.320312 662.503906 796.730469 638.203125 L 832.144531 609.761719 C 847.589844 628.785156 867.179688 644.421875 889.40625 655.15625 C 910.882812 665.332031 934.996094 671.167969 960.613281 671.167969 Z M 960.613281 716.566406 " fill-opacity="1" fill-rule="nonzero"/><path fill="#2c6994" d="M 553.539062 682.09375 C 571.246094 678.515625 588.390625 673.242188 604.589844 666.273438 C 637.179688 652.519531 666.1875 632.175781 690.109375 606.933594 C 711.773438 584.140625 726.089844 555.507812 739.839844 528.007812 C 744.363281 518.964844 748.695312 510.113281 753.214844 501.445312 L 806.335938 501.445312 C 796.730469 515.761719 788.816406 531.773438 780.527344 548.164062 C 765.269531 578.679688 749.449219 610.324219 723.074219 638.203125 C 694.820312 667.777344 660.535156 691.703125 622.484375 708.089844 C 600.632812 717.507812 577.464844 724.289062 553.539062 728.246094 Z M 553.539062 682.09375 " fill-opacity="1" fill-rule="nonzero"/><path fill="#2c6994" d="M 553.539062 588.664062 L 553.917969 588.472656 C 586.507812 574.535156 615.515625 554.191406 639.4375 528.949219 C 647.539062 520.472656 654.507812 511.242188 660.914062 501.445312 L 713.84375 501.445312 C 702.730469 521.789062 689.921875 541.945312 672.402344 560.21875 C 644.148438 589.980469 609.863281 613.90625 571.8125 630.105469 C 565.785156 632.742188 559.757812 635.191406 553.539062 637.261719 Z M 553.539062 588.664062 " fill-opacity="1" fill-rule="nonzero"/><path fill="#01406c" d="M 788.253906 699.238281 C 795.789062 706.019531 803.699219 712.234375 811.988281 718.074219 L 782.976562 753.300781 C 773.9375 746.707031 765.269531 739.738281 756.984375 732.390625 C 775.066406 717.320312 788.253906 699.238281 788.253906 699.238281 Z M 788.253906 699.238281 " fill-opacity="1" fill-rule="nonzero"/><path fill="#01406c" d="M 836.664062 615.222656 C 834.78125 618.800781 833.085938 622.570312 831.203125 626.148438 C 825.925781 636.699219 820.652344 647.246094 814.8125 657.984375 C 820.085938 645.738281 836.664062 615.222656 836.664062 615.222656 Z M 836.664062 615.222656 " fill-opacity="1" fill-rule="nonzero"/><path fill="#01406c" d="M 837.984375 677.199219 C 829.882812 671.359375 822.160156 664.953125 814.8125 657.984375 C 820.085938 645.738281 836.664062 615.222656 836.664062 615.222656 C 843.820312 623.324219 851.921875 630.859375 860.398438 637.449219 C 860.398438 638.015625 860.398438 638.394531 860.398438 638.394531 Z M 837.984375 677.199219 " fill-opacity="1" fill-rule="nonzero"/><g clip-path="url(#61c3dbe0ab)"><path fill="#2c6994" d="M 397.378906 201.746094 C 397.378906 237.914062 404.726562 272.386719 418.101562 303.65625 C 431.851562 336.054688 452.195312 365.066406 477.4375 388.988281 C 500.042969 410.652344 528.863281 424.96875 556.367188 438.71875 C 591.402344 456.238281 624.933594 472.8125 647.914062 501.445312 L 576.898438 501.445312 C 564.277344 493.535156 550.339844 486.566406 536.023438 479.40625 C 511.722656 467.164062 486.480469 454.542969 462.933594 436.457031 C 444.097656 457.554688 428.648438 481.855469 417.347656 508.605469 C 404.539062 539.308594 397.378906 573.214844 397.378906 608.820312 L 351.792969 608.820312 C 351.792969 567 360.269531 527.253906 375.527344 490.898438 C 388.714844 459.441406 407.175781 430.429688 429.96875 405.1875 C 407.742188 380.511719 389.46875 352.253906 376.28125 321.363281 C 360.460938 284.628906 351.792969 244.128906 351.792969 201.746094 Z M 397.378906 201.746094 " fill-opacity="1" fill-rule="nonzero"/></g><path fill="#2c6994" d="M 445.605469 608.820312 C 445.605469 576.417969 453.136719 545.714844 466.324219 518.023438 C 479.886719 489.578125 499.855469 464.527344 524.15625 444.933594 L 552.597656 480.347656 C 533.386719 495.796875 517.75 515.386719 507.203125 537.613281 C 496.839844 559.089844 491.191406 583.199219 491.191406 608.820312 Z M 445.605469 608.820312 " fill-opacity="1" fill-rule="nonzero"/><path fill="#2c6994" d="M 480.074219 201.746094 C 483.65625 219.453125 488.929688 236.59375 495.898438 252.796875 C 509.839844 285.382812 530.183594 314.394531 555.425781 338.316406 C 578.027344 359.980469 606.660156 374.296875 634.351562 388.046875 C 643.207031 392.566406 652.058594 396.898438 660.722656 401.421875 L 660.722656 454.542969 C 646.597656 444.933594 630.585938 437.023438 614.007812 428.734375 C 583.679688 413.476562 551.84375 397.652344 523.964844 371.28125 C 494.390625 343.027344 470.46875 308.742188 454.269531 270.691406 C 444.851562 248.839844 438.070312 225.667969 433.925781 201.746094 Z M 480.074219 201.746094 " fill-opacity="1" fill-rule="nonzero"/><path fill="#2c6994" d="M 573.695312 201.746094 L 573.886719 202.125 C 587.824219 234.710938 608.167969 263.722656 633.222656 287.644531 C 641.699219 295.746094 650.929688 302.714844 660.722656 309.117188 L 660.722656 362.050781 C 640.378906 350.9375 620.414062 338.128906 601.953125 320.609375 C 572.378906 292.351562 548.453125 258.070312 532.066406 220.019531 C 529.617188 213.992188 527.167969 207.960938 524.910156 201.746094 Z M 573.695312 201.746094 " fill-opacity="1" fill-rule="nonzero"/><path fill="#01406c" d="M 462.933594 436.457031 C 456.339844 443.992188 449.9375 451.90625 444.097656 460.191406 L 408.871094 431.183594 C 415.464844 422.140625 422.433594 413.476562 429.96875 405.1875 C 444.851562 423.273438 462.933594 436.457031 462.933594 436.457031 Z M 462.933594 436.457031 " fill-opacity="1" fill-rule="nonzero"/><path fill="#01406c" d="M 547.136719 484.871094 C 543.367188 482.984375 539.789062 481.289062 536.023438 479.40625 C 525.660156 474.132812 514.925781 468.859375 504.375 463.019531 C 516.621094 468.292969 547.136719 484.871094 547.136719 484.871094 Z M 547.136719 484.871094 " fill-opacity="1" fill-rule="nonzero"/><path fill="#01406c" d="M 484.972656 486.1875 C 491 478.089844 497.40625 470.363281 504.375 463.019531 C 516.621094 468.292969 547.136719 484.871094 547.136719 484.871094 C 538.847656 492.027344 531.5 500.128906 524.910156 508.605469 C 524.34375 508.605469 523.964844 508.605469 523.964844 508.605469 Z M 484.972656 486.1875 " fill-opacity="1" fill-rule="nonzero"/></svg>